<?xml version="1.0" standalone="no"?>
<!DOCTYPE svg PUBLIC "-//W3C//DTD SVG 20010904//EN"
 "http://www.w3.org/TR/2001/REC-SVG-20010904/DTD/svg10.dtd">
<svg version="1.0" xmlns="http://www.w3.org/2000/svg"
 width="126.000000pt" height="126.000000pt" viewBox="0 0 126.000000 126.000000"
 preserveAspectRatio="xMidYMid meet">
<metadata>
Created by potrace 1.11, written by Peter Selinger 2001-2013
</metadata>
<g transform="translate(0.000000,126.000000) scale(0.100000,-0.100000)"
fill="#000000" stroke="none">
<path d="M695 1251 c-31 -13 -72 -62 -91 -106 -14 -32 -17 -75 -19 -226 l-1
-186 -39 -66 -40 -65 -3 109 c-1 60 -5 109 -8 109 -3 0 -19 -9 -35 -21 l-29
-20 0 -149 0 -149 -60 -108 c-72 -129 -110 -239 -104 -303 5 -54 23 -70 77
-70 55 0 101 32 129 88 21 43 23 64 28 242 l5 195 33 57 c18 32 37 60 41 62 4
3 7 -44 6 -104 l-1 -109 36 20 c36 20 37 23 35 75 -2 63 11 97 54 146 34 39
65 52 80 34 5 -6 11 -64 13 -130 5 -122 10 -136 51 -136 54 0 175 106 149 132
-7 7 -24 -4 -56 -38 -61 -63 -71 -54 -72 71 -2 115 -8 141 -35 156 -36 19 -85
2 -134 -46 -25 -25 -46 -45 -48 -45 -1 0 -2 24 -1 54 1 46 9 68 56 152 98 173
131 303 90 354 -19 24 -75 35 -107 21z m61 -38 c29 -39 10 -142 -52 -274 -21
-44 -40 -75 -43 -70 -5 8 -6 183 -2 271 1 14 10 40 21 58 22 36 55 42 76 15z
m-327 -963 c-1 -127 -5 -157 -21 -190 -50 -100 -119 -1 -84 120 9 30 98 220
103 220 2 0 3 -68 2 -150z"/>
<path d="M431 964 c-20 -25 -20 -27 -3 -50 22 -31 54 -27 66 8 8 22 6 32 -9
48 -23 26 -29 25 -54 -6z"/>
</g>
</svg>
